<?xml version="1.0" encoding="UTF-8" standalone="no"?>
<!-- Svg Vector Icons : http://www.onlinewebfonts.com/icon -->

<svg
   xmlns:dc="http://purl.org/dc/elements/1.1/"
   xmlns:cc="http://creativecommons.org/ns#"
   xmlns:rdf="http://www.w3.org/1999/02/22-rdf-syntax-ns#"
   xmlns:svg="http://www.w3.org/2000/svg"
   xmlns="http://www.w3.org/2000/svg"
   xmlns:sodipodi="http://sodipodi.sourceforge.net/DTD/sodipodi-0.dtd"
   xmlns:inkscape="http://www.inkscape.org/namespaces/inkscape"
   version="1.1"
   x="0px"
   y="0px"
   viewBox="0 0 1000 1000"
   enable-background="new 0 0 1000 1000"
   xml:space="preserve"
   id="svg44"
   sodipodi:docname="forest.svg"
   inkscape:version="0.92.5 (2060ec1f9f, 2020-04-08)"><defs
   id="defs48" /><sodipodi:namedview
   pagecolor="#ffffff"
   bordercolor="#666666"
   borderopacity="1"
   objecttolerance="10"
   gridtolerance="10"
   guidetolerance="10"
   inkscape:pageopacity="0"
   inkscape:pageshadow="2"
   inkscape:window-width="1920"
   inkscape:window-height="1016"
   id="namedview46"
   showgrid="false"
   inkscape:pagecheckerboard="true"
   inkscape:zoom="0.236"
   inkscape:cx="-258.47458"
   inkscape:cy="500"
   inkscape:window-x="0"
   inkscape:window-y="27"
   inkscape:window-maximized="1"
   inkscape:current-layer="svg44" />
<metadata
   id="metadata2"> Svg Vector Icons : http://www.onlinewebfonts.com/icon <rdf:RDF><cc:Work
     rdf:about=""><dc:format>image/svg+xml</dc:format><dc:type
       rdf:resource="http://purl.org/dc/dcmitype/StillImage" /><dc:title></dc:title></cc:Work></rdf:RDF></metadata>
<g
   id="g42"
   style="fill:#ddecf2;fill-opacity:1"><g
     id="g10"
     style="fill:#ddecf2;fill-opacity:1"><g
       id="g8"
       style="fill:#ddecf2;fill-opacity:1"><g
         id="g6"
         style="fill:#ddecf2;fill-opacity:1"><path
           d="M534,962.8l-1.4-248.6l86.4-0.5l-59.9,78.6l173.9-0.9l0.9,163l28.6-0.1l-0.9-163l173.8-0.9L820.7,656.2l63.3-0.4L778.2,532.1l65.6-0.3l-87-101.6L797,430l-66.8-78.2l-59.1,77.7L559.2,298.8l105-0.6L524.9,135.4l64.6-0.4L482.2,10l-96.1,126.2l65.4-0.3L326.4,300.1l103.1-0.5L297,473.7l-34.8-40.7l40.2-0.2l-66.8-78.2l-60,78.8l40.8-0.2l-78,102.6l64.4-0.4l-94.9,124.6l59.7-0.3L64.6,795.1l173.9-0.9l0.9,162.9L268,957l-0.9-163l173.7-0.9l-66.7-77.9l112.7-0.6l1.4,248.7l-273.7,1.4l0.2,25.4l593.2-3.2l-0.1-25.4C807.6,961.4,534,962.8,534,962.8z M657.6,532.9l39.9-0.2l-18.8,24.8L657.6,532.9z M711,430.7l-18.3,24.1l-20.5-23.9C672.2,430.9,711,430.7,711,430.7z M660.3,497.5L644.7,518l-17.3-20.2L660.3,497.5z M373,499.1l-25.6,33.7l-28.5-33.3L373,499.1z M283.7,535.1l62.2-0.5l-29.5,38.7L283.7,535.1z"
           id="path4"
           style="fill:#ddecf2;fill-opacity:1" /></g></g></g><g
     id="g12"
     style="fill:#ddecf2;fill-opacity:1" /><g
     id="g14"
     style="fill:#ddecf2;fill-opacity:1" /><g
     id="g16"
     style="fill:#ddecf2;fill-opacity:1" /><g
     id="g18"
     style="fill:#ddecf2;fill-opacity:1" /><g
     id="g20"
     style="fill:#ddecf2;fill-opacity:1" /><g
     id="g22"
     style="fill:#ddecf2;fill-opacity:1" /><g
     id="g24"
     style="fill:#ddecf2;fill-opacity:1" /><g
     id="g26"
     style="fill:#ddecf2;fill-opacity:1" /><g
     id="g28"
     style="fill:#ddecf2;fill-opacity:1" /><g
     id="g30"
     style="fill:#ddecf2;fill-opacity:1" /><g
     id="g32"
     style="fill:#ddecf2;fill-opacity:1" /><g
     id="g34"
     style="fill:#ddecf2;fill-opacity:1" /><g
     id="g36"
     style="fill:#ddecf2;fill-opacity:1" /><g
     id="g38"
     style="fill:#ddecf2;fill-opacity:1" /><g
     id="g40"
     style="fill:#ddecf2;fill-opacity:1" /></g>
</svg>