<?xml version="1.0" encoding="utf-8"?>
<!-- Svg Vector Icons : http://www.onlinewebfonts.com/icon -->
<!DOCTYPE svg PUBLIC "-//W3C//DTD SVG 1.1//EN" "http://www.w3.org/Graphics/SVG/1.1/DTD/svg11.dtd">
<svg version="1.1" xmlns="http://www.w3.org/2000/svg" xmlns:xlink="http://www.w3.org/1999/xlink" x="0px" y="0px" viewBox="0 0 1000 1000" enable-background="new 0 0 1000 1000" xml:space="preserve">
<metadata> Svg Vector Icons : http://www.onlinewebfonts.com/icon </metadata>
<g><g><g><g><path d="M534,962.8l-1.4-248.6l86.4-0.5l-59.9,78.6l173.9-0.9l0.9,163l28.6-0.1l-0.9-163l173.8-0.9L820.7,656.2l63.3-0.4L778.2,532.1l65.6-0.3l-87-101.6L797,430l-66.8-78.2l-59.1,77.7L559.2,298.8l105-0.6L524.9,135.4l64.6-0.4L482.2,10l-96.1,126.2l65.4-0.3L326.4,300.1l103.1-0.5L297,473.7l-34.8-40.7l40.2-0.2l-66.8-78.2l-60,78.8l40.8-0.2l-78,102.6l64.4-0.4l-94.9,124.6l59.7-0.3L64.6,795.1l173.9-0.9l0.9,162.9L268,957l-0.9-163l173.7-0.9l-66.7-77.9l112.7-0.6l1.4,248.7l-273.7,1.4l0.2,25.4l593.2-3.2l-0.1-25.4C807.6,961.4,534,962.8,534,962.8z M657.6,532.9l39.9-0.2l-18.8,24.8L657.6,532.9z M711,430.7l-18.3,24.1l-20.5-23.9C672.2,430.9,711,430.7,711,430.7z M660.3,497.5L644.7,518l-17.3-20.2L660.3,497.5z M373,499.1l-25.6,33.7l-28.5-33.3L373,499.1z M283.7,535.1l62.2-0.5l-29.5,38.7L283.7,535.1z"/></g></g></g><g></g><g></g><g></g><g></g><g></g><g></g><g></g><g></g><g></g><g></g><g></g><g></g><g></g><g></g><g></g></g>
</svg>