<?xml version="1.0" encoding="UTF-8" standalone="no"?>
<!-- Created with Inkscape (http://www.inkscape.org/) -->

<svg
   width="722mm"
   height="722mm"
   viewBox="0 0 722 722"
   version="1.1"
   id="svg13733"
   inkscape:version="1.1.2 (1:1.1+202202050950+0a00cf5339)"
   sodipodi:docname="methanol.svg"
   xmlns:inkscape="http://www.inkscape.org/namespaces/inkscape"
   xmlns:sodipodi="http://sodipodi.sourceforge.net/DTD/sodipodi-0.dtd"
   xmlns="http://www.w3.org/2000/svg"
   xmlns:svg="http://www.w3.org/2000/svg">
  <sodipodi:namedview
     id="namedview13735"
     pagecolor="#00ffff"
     bordercolor="#111111"
     borderopacity="1"
     inkscape:pageshadow="0"
     inkscape:pageopacity="1"
     inkscape:pagecheckerboard="1"
     inkscape:document-units="mm"
     showgrid="false"
     width="720mm"
     inkscape:snap-global="false"
     inkscape:zoom="0.27901843"
     inkscape:cx="1738.2364"
     inkscape:cy="1503.4849"
     inkscape:window-width="1920"
     inkscape:window-height="1016"
     inkscape:window-x="0"
     inkscape:window-y="27"
     inkscape:window-maximized="1"
     inkscape:current-layer="layer1" />
  <defs
     id="defs13730" />
  <g
     inkscape:label="Lager 1"
     inkscape:groupmode="layer"
     id="layer1">
    <path
       style="fill:#64a900;fill-opacity:1;stroke-width:0.937495"
       d="m 636.30891,268.92039 c -12.68088,-1.99899 -19.02798,-4.16856 -21.2262,-7.25565 -1.07092,-1.50398 -1.685,-2.99656 -1.36471,-3.31689 0.32037,-0.3204 2.79211,0.0976 5.49292,0.92877 2.70075,0.83112 9.23477,2.21877 14.51993,3.0836 12.4377,2.03526 50.52575,1.50931 69.84308,-0.96448 14.26772,-1.82707 15.70375,-1.52263 15.70375,3.32911 0,5.50221 -0.51436,5.57286 -39.81796,5.47061 -23.65507,-0.0615 -38.17439,-0.49058 -43.15081,-1.27507 z m 2.81251,-9.96704 c -8.46475,-0.77141 -25.78126,-5.16145 -25.78126,-6.53598 0,-1.02088 4.8538,-2.51759 13.57717,-4.18666 4.07641,-0.77995 10.28002,-2.80187 13.78571,-4.49317 l 6.37405,-3.07515 2.86321,3.56292 c 2.96218,3.68602 6.1707,4.63921 7.13727,2.12036 0.35612,-0.92826 -0.68668,-2.51585 -2.92525,-4.45313 l -3.47879,-3.0106 3.05214,-2.253 c 2.98615,-2.2043 3.08522,-2.21444 4.58363,-0.46875 3.46109,4.03234 6.34693,6.03875 7.85389,5.46044 2.28089,-0.87525 1.90213,-4.05821 -0.59593,-5.00798 -2.80991,-1.06833 -4.95723,-3.67641 -3.85921,-4.6873 1.74914,-1.61036 11.58568,-6.63716 12.98772,-6.63716 1.06494,0 1.4569,0.96981 1.4569,3.6047 0,4.10602 1.51497,5.86962 7.01682,8.16844 5.97263,2.49553 14.6801,0.0854 23.20354,-6.4224 4.21799,-3.22052 6.47115,-2.795 8.03025,1.51654 1.55433,4.29845 1.4283,7.19521 -0.31299,7.19521 -2.08739,0 -9.99306,4.17157 -13.50325,7.12519 -1.66126,1.39784 -4.25643,4.73161 -5.76709,7.40831 l -2.74665,4.86678 -11.38873,0.61235 c -14.13906,0.76026 -30.49239,0.59898 -41.56315,-0.40974 z m 58.59379,-2.05898 c 0,-3.66706 15.92698,-15.11668 18.06037,-12.9833 0.4501,0.45012 0.46907,3.27379 0.0436,6.32928 l -0.77018,5.51659 -5.15075,0.62508 c -2.83286,0.34392 -6.73274,0.87607 -8.66631,1.18295 -2.55772,0.40581 -3.51562,0.22318 -3.51562,-0.6706 z"
       id="path7512" />
    <path
       style="fill:#64a900;fill-opacity:1;stroke-width:0.768881"
       d="m 676.70295,204.8168 v -4.22885 h -10.37988 -10.37989 v 3.17615 3.1761 l -2.6518,-0.43023 c -1.45849,-0.23669 -3.88046,-1.01334 -5.38216,-1.72595 l -2.73037,-1.29566 0.003,-10.86893 c 0.003,-9.44453 0.2007,-11.19337 1.51233,-13.34454 1.89752,-3.1121 6.5371,-6.50167 11.99679,-8.7646 3.18611,-1.32057 4.0988,-2.04194 3.72387,-2.94333 -3.58381,-8.61615 -4.55531,-18.29276 -2.24266,-22.33831 1.42048,-2.48485 1.41585,-3.07549 -0.0239,-3.07549 -1.92312,0 -2.30628,-2.36642 -0.60727,-3.75058 0.84196,-0.68593 2.16506,-2.97712 2.9402,-5.09154 1.37144,-3.74094 5.53348,-8.84216 7.21425,-8.84216 0.45908,0 1.22675,1.557 1.70592,3.45996 0.8194,3.25413 1.6636,4.22384 2.49958,2.87119 0.20016,-0.32387 -0.12061,-2.45669 -0.71281,-4.73964 -1.42014,-5.47377 -0.77956,-6.20478 5.43713,-6.20478 6.13368,0 6.8485,0.76649 5.35199,5.73903 -1.41537,4.70293 -1.41141,5.79416 0.0209,5.79416 0.74144,0 1.31831,-1.08862 1.63875,-3.09254 0.272,-1.70092 0.78793,-3.27391 1.14652,-3.49553 2.05516,-1.27017 7.89095,5.92995 8.81994,10.88191 0.2903,1.54745 1.01884,2.6291 1.93156,2.8678 1.93341,0.5056 1.88287,2.86866 -0.0722,3.37993 -1.83566,0.48001 -1.80231,0.17087 -0.38443,3.56414 1.71939,4.11508 1.41909,11.52478 -0.7215,17.80283 -1.00931,2.96021 -1.77886,5.41734 -1.71011,5.46032 0.0687,0.0436 2.02795,0.95061 4.35381,2.017 6.09033,2.79233 10.71778,6.4478 11.9768,9.46105 0.76184,1.82333 1.09417,5.75232 1.09417,12.9357 v 10.31695 l -2.73039,1.29566 c -1.5017,0.71261 -3.92368,1.48931 -5.38217,1.72595 l -2.6518,0.43023 v -3.1761 -3.17615 h -10.37989 -10.37988 v 4.22885 c 0,3.99822 -0.10483,4.22885 -1.92221,4.22885 -1.81734,0 -1.9222,-0.23059 -1.9222,-4.22885 z m 0,-12.22662 c 0,-2.30173 -1.13216,-6.05288 -3.53895,-11.72543 -1.94643,-4.5875 -3.82878,-8.64896 -4.18299,-9.02549 -1.10576,-1.1754 -9.16319,2.56231 -9.54891,4.42958 -0.82277,3.98295 -2.72004,16.58781 -2.72004,18.07113 0,1.5832 0.31494,1.63472 9.99545,1.63472 h 9.99544 z m 23.83529,2.36663 c 0,-1.24506 -2.18033,-16.43715 -2.67368,-18.62965 -0.40849,-1.8153 -8.53758,-5.59082 -9.63952,-4.477 -0.36659,0.37052 -2.24402,4.37117 -4.1721,8.89032 -2.44908,5.74029 -3.50558,9.27409 -3.50558,11.72542 v 3.50879 h 9.99545 c 7.7812,0 9.99543,-0.22536 9.99543,-1.01788 z m -15.00748,-24.46897 c 0.26049,-0.26068 0.26795,-1.29293 0.0166,-2.29432 -0.43534,-1.73446 -0.76334,-1.82072 -6.92151,-1.82072 -5.98665,0 -6.52371,0.1299 -7.26481,1.75638 -0.67979,1.492 -0.54051,1.86679 0.92527,2.48956 1.82833,0.77686 12.44156,0.67193 13.24441,-0.13078 z m -1.1924,-9.4696 c 3.1441,-1.62586 6.06244,-5.40866 6.66963,-8.6453 0.56911,-3.03361 -0.11002,-3.88375 -6.69683,-8.38316 l -2.77168,-1.89334 -2.47751,2.31433 c -2.09451,1.95659 -4.93223,3.15139 -12.16224,5.12101 -2.81834,0.76775 0.4643,7.71989 5.12972,10.86391 3.06757,2.06721 8.94078,2.36428 12.30891,0.62255 z"
       id="path4969" />
    <path
       style="fill:#64a900;fill-opacity:1;stroke-width:0.768881"
       d="m 627.67774,544.78599 c -0.28551,-0.28551 -0.51902,-24.3351 -0.51902,-53.44364 v -52.92458 h 43.06259 43.06259 l -0.19747,53.24497 -0.19746,53.24497 -42.34605,0.19877 c -23.29036,0.10933 -42.57966,-0.0348 -42.86513,-0.32039 z m 53.21751,-20.66173 c 5.1422,-2.30769 9.67398,-6.65655 12.51499,-12.00976 1.49169,-2.81069 1.77637,-4.50943 1.7846,-10.64853 0.0125,-8.53617 -1.61604,-12.8164 -6.86979,-18.067 -5.15827,-5.1551 -9.60668,-6.88845 -17.72456,-6.90637 -6.02309,-0.0125 -7.48209,0.26067 -11.25757,2.11491 -5.08312,2.49624 -10.12732,7.66488 -12.42161,12.72795 -2.47016,5.45129 -2.30792,14.47997 0.36354,20.2397 6.07416,13.09507 20.44079,18.45918 33.61018,12.5491 z m -17.30282,-3.86386 c -4.19511,-1.55006 -9.17745,-5.90466 -11.26153,-9.84273 -1.29486,-2.44667 -1.68978,-4.52207 -1.70345,-8.9517 -0.0175,-5.05236 0.27765,-6.28786 2.36916,-9.97499 10.23581,-18.04632 37.12087,-10.95705 37.19344,9.80747 0.0262,7.94625 -3.33765,13.77866 -10.06264,17.43887 -4.83932,2.63388 -11.79464,3.27457 -16.53498,1.52308 z m -2.12851,-18.85009 2.5782,-1.5934 3.14649,1.76846 3.14656,1.76844 3.06141,-1.7619 3.06146,-1.76196 2.68957,1.58689 c 3.17087,1.87084 4.39544,1.97794 5.62847,0.49228 1.56994,-1.89173 -0.44628,-7.2915 -4.07899,-10.92421 -5.51947,-5.5195 -12.77352,-6.19874 -18.88906,-1.76864 -6.08832,4.41037 -8.41877,13.29542 -3.60037,13.72676 0.37314,0.0348 1.83827,-0.65634 3.25626,-1.53272 z m 44.12063,-47.62268 v -7.69658 l -35.17628,0.20009 -35.17629,0.20008 -0.22536,6.47119 c -0.12376,3.55918 -0.0484,6.93268 0.16827,7.49658 0.31994,0.83385 6.93409,1.02539 35.40167,1.02539 h 35.00821 z m -62.27934,0.009 v -3.84442 h 7.68881 7.68882 v 3.84442 3.84439 h -7.68882 -7.68881 z m 27.54968,2.88327 c -1.84099,-1.48328 -2.17214,-3.31637 -0.92169,-5.10165 1.56328,-2.23185 4.55871,-2.08691 6.12016,0.29596 1.16672,1.78067 1.16672,2.06379 0,3.84444 -1.37532,2.099 -3.33627,2.46153 -5.19847,0.96109 z m 11.33372,-0.24716 c -2.28141,-2.28142 -0.8404,-6.48058 2.22388,-6.48058 3.7599,0 5.53232,3.98941 2.85062,6.41633 -1.76588,1.59809 -3.51847,1.62028 -5.0745,0.0641 z m 11.50635,-0.29859 c -1.89784,-2.09704 -1.02667,-5.22967 1.64042,-5.89909 2.59322,-0.65085 4.41886,0.49706 4.71653,2.9657 0.46297,3.83923 -3.76962,5.79238 -6.35695,2.93339 z"
       id="path5099" />
    <path
       style="fill:#64a900;fill-opacity:1;stroke-width:0.768881"
       d="m 473.44865,318.85811 v -4.2288 h 2.69109 2.69109 l 0.0125,-39.78959 c 0.0125,-42.77765 -0.0561,-42.02371 4.07935,-45.09759 2.01359,-1.49679 3.33127,-1.62931 18.4531,-1.85569 18.78031,-0.28114 22.06398,0.0524 24.949,2.53167 l 2.10005,1.80491 0.38446,18.3086 0.38447,18.30863 3.45878,0.58951 c 3.79175,0.64626 6.36419,2.25823 8.79578,5.51166 1.43912,1.92555 1.60895,3.40957 1.84254,16.09855 0.14949,8.12959 0.59113,14.37979 1.05524,14.93902 1.16862,1.40804 4.28692,1.17273 5.12139,-0.38664 0.74102,-1.38464 -1.60412,-44.72734 -2.65645,-49.0963 -1.34337,-5.57721 -4.52387,-9.70911 -9.35181,-12.14933 -2.0116,-1.0167 -2.49891,-1.72857 -2.49891,-3.6505 0,-2.30953 0.0899,-2.37291 2.75403,-1.94058 4.08213,0.66244 9.49226,3.51767 13.31676,7.02798 5.35296,4.91318 8.78345,13.91564 5.93022,15.5623 -0.90607,0.52291 -0.91181,2.97246 -0.0393,16.37693 1.51118,23.19689 1.43281,29.05318 -0.42981,32.10781 -2.13656,3.50419 -5.83566,5.56156 -9.99961,5.56156 -4.16392,0 -7.86303,-2.05737 -9.9996,-5.56156 -1.3689,-2.24522 -1.52813,-3.891 -1.53071,-15.81963 -0.002,-7.70124 -0.33825,-13.94073 -0.79882,-14.80098 -1.13845,-2.12727 -4.43939,-1.96643 -4.98118,0.24281 -0.2332,0.95149 -0.32649,9.16892 -0.20705,18.26093 l 0.21751,16.53093 2.88326,0.23844 2.88332,0.23844 v 4.18241 4.18242 h -30.75519 -30.75522 z m 47.4974,-69.77589 -0.2114,-12.49432 h -16.53092 -16.53092 l -0.21142,12.49432 -0.21142,12.49431 h 16.95349 16.95345 z"
       id="path5229" />
    <path
       style="fill:#64a900;fill-opacity:1;stroke-width:0.768881"
       d="m 512.24048,597.34046 c -6.47574,-3.19594 -6.4039,-12.22892 0.12188,-15.32562 3.38554,-1.60655 22.26112,-1.64907 26.06738,-0.0588 2.79414,1.16745 5.75299,5.14569 5.75299,7.73504 0,2.36746 -2.74595,6.32854 -5.30424,7.65149 -3.24571,1.67845 -23.23602,1.67672 -26.63803,-0.002 z m 13.49488,-7.64923 v -4.22886 h -5.71169 c -6.25307,0 -8.12816,0.97555 -8.12816,4.22886 0,3.25325 1.87509,4.22884 8.12816,4.22884 h 5.71169 z m -39.59734,-0.53434 c -0.84578,-0.47961 -1.79196,-1.24758 -2.10265,-1.70664 -0.31067,-0.459 -0.57019,-13.03094 -0.57667,-27.93761 -0.0113,-26.08614 0.0459,-27.1607 1.52599,-28.64077 0.95194,-0.95197 2.56293,-1.53778 4.22884,-1.53778 2.4775,0 2.69108,-0.18307 2.69108,-2.30665 0,-1.94782 -0.29903,-2.30661 -1.9222,-2.30661 -1.86189,0 -1.9222,-0.16392 -1.9222,-5.22841 0,-3.04131 0.38594,-5.61433 0.92266,-6.15105 0.66358,-0.66357 5.83747,-0.92267 18.42607,-0.92267 20.16026,0 19.0953,-0.42588 19.0953,7.63829 0,4.46215 -0.0831,4.66384 -1.9222,4.66384 -1.6232,0 -1.92221,0.35873 -1.92221,2.30661 0,2.12358 0.2136,2.30665 2.69108,2.30665 4.27585,0 5.76661,2.08709 5.76661,8.07323 v 4.99773 h -19.13975 c -16.74367,0 -19.19818,0.15216 -19.60645,1.21622 -0.68528,1.7858 -0.54662,22.07174 0.15844,23.18173 0.44364,0.69839 5.53811,1.00121 19.40247,1.1533 l 18.80085,0.20617 0.23059,4.42103 0.23059,4.42109 h -9.30311 c -6.51402,0 -9.92558,0.32518 -11.37935,1.0847 -3.31056,1.72948 -6.10229,5.18835 -7.03695,8.71854 l -0.86517,3.26774 -7.46695,-0.0218 c -4.10682,-0.0125 -8.15895,-0.41585 -9.00471,-0.89539 z m 10.71069,-26.239 c -0.21439,-0.55869 -0.29006,-4.45115 -0.16809,-8.64993 l 0.2217,-7.63406 17.10759,-0.20705 17.10759,-0.20704 v 8.85681 8.85684 H 514.178 c -13.32905,0 -17.02258,-0.21665 -17.32932,-1.01583 z"
       id="path5359" />
    <path
       style="fill:#64a900;fill-opacity:1;stroke-width:0.768881"
       d="m 491.5674,452.7643 c -6.14857,-1.03531 -11.25658,-3.07179 -12.8793,-5.13473 -1.33468,-1.69679 -1.5475,-3.11407 -1.5475,-10.3057 v -8.33838 l 3.26774,-1.64706 c 4.03102,-2.03177 11.985,-7.63083 13.95901,-9.82621 0.8056,-0.8959 2.12026,-1.62896 2.92149,-1.62896 4.24037,0 8.30033,-4.48842 8.30033,-9.17623 0,-2.88343 -3.30938,-6.74182 -6.56415,-7.65303 -5.30906,-1.48637 -10.70071,2.72485 -10.70071,8.35797 0,1.64775 0.24952,3.24546 0.55448,3.55041 0.90394,0.90393 3.63942,-2.09167 3.63942,-3.98547 0,-3.81044 5.32945,-5.6587 7.95408,-2.75853 2.81159,3.10676 0.49623,7.82051 -3.84139,7.82051 -0.93291,0 -2.15341,0.45028 -2.71223,1.00065 -6.3277,6.23211 -17.35643,12.83732 -21.43662,12.83857 -7.188,0.002 -6.38825,-8.25438 1.86181,-19.22142 3.16401,-4.20601 3.18325,-4.27227 3.56562,-12.27516 l 0.38446,-8.04627 2.54628,-1.71228 c 4.17358,-2.80649 10.17523,-3.72377 24.36454,-3.72377 11.36914,0 13.77895,0.22277 18.50863,1.71058 8.69708,2.73594 8.06673,-0.0694 7.83457,34.86695 l -0.20126,30.28547 -3.2849,1.81186 c -1.80668,0.99653 -5.95863,2.28857 -9.22656,2.87129 -6.39802,1.1408 -21.34853,1.31568 -27.26781,0.31907 z m -15.33185,-31.95136 c 1.54247,-1.0804 1.71754,-1.76827 1.51663,-5.95885 -0.12492,-2.60558 -0.57314,-4.72904 -0.99601,-4.71874 -1.12218,0.0263 -6.04835,10.05221 -5.43067,11.05161 0.74743,1.20934 2.88153,1.04681 4.91005,-0.37402 z m 50.10594,-7.22238 c 0.50388,-0.9415 0.73459,-6.15684 0.60372,-13.64763 l -0.21181,-12.12379 -4.22884,-1.50534 c -5.96756,-2.12426 -28.15975,-2.25386 -34.79184,-0.20311 -2.43159,0.75182 -4.42108,1.67559 -4.42108,2.05278 0,1.12666 10.61567,3.22204 18.64536,3.68031 7.15843,0.40842 7.49659,0.50668 7.49659,2.17536 0,3.20665 0.81396,4.17992 3.49581,4.17992 2.40598,0 2.57697,0.17612 2.80103,2.88328 0.22293,2.69326 0.40339,2.88283 2.73751,2.8759 l 2.49886,-0.01 v 4.09459 c 0,2.25203 0.35817,4.76381 0.79592,5.58181 1.032,1.92827 3.53792,1.90828 4.57878,-0.0348 z"
       id="path5489" />
    <path
       style="fill:#64a900;fill-opacity:1;stroke-width:0.768881"
       d="m 481.3947,195.21411 c -6.54744,-3.99263 -6.17965,-13.62342 0.67996,-17.80599 8.46903,-5.16388 18.82376,4.0912 14.73122,13.16678 -2.55146,5.65813 -10.04236,7.91312 -15.41118,4.63921 z m 63.64013,-0.10761 c -4.19286,-2.55629 -5.91613,-8.59749 -3.67896,-12.89722 2.46692,-4.74132 7.50704,-7.21113 12.27413,-6.01467 3.1646,0.79425 6.54631,4.2081 7.43396,7.5046 1.09462,4.06513 -0.0779,7.56029 -3.56225,10.61972 -3.30992,2.90614 -8.45855,3.23141 -12.46688,0.78757 z m -78.32856,-9.92209 c -4.18279,-1.91213 -5.68179,-4.90615 -6.1934,-12.37048 -0.7889,-11.50973 -0.48253,-12.22335 9.67641,-22.53986 4.92816,-5.00462 9.89461,-9.58908 11.03655,-10.1877 2.68003,-1.4049 45.83923,-1.60641 48.52821,-0.22668 0.92368,0.47396 6.03411,5.14495 11.35651,10.3799 l 9.67709,9.51811 7.62272,0.0175 c 8.29389,0.0175 12.28165,1.22798 15.45254,4.6872 2.58628,2.82146 3.31895,5.60076 3.31895,12.58998 0,6.03021 -0.12585,6.52862 -2.02589,8.0232 -1.40324,1.10378 -3.14753,1.59356 -5.67531,1.59356 h -3.64944 l -0.86624,-3.44012 c -2.29985,-9.13363 -12.09315,-13.68147 -20.59685,-9.56491 -3.79444,1.8369 -6.19065,4.8287 -7.54613,9.42182 l -0.944,3.19873 -16.65712,0.2075 c -15.35859,0.1909 -16.69214,0.10116 -17.10608,-1.15332 -2.84128,-8.61095 -6.97481,-12.55707 -13.74125,-13.11822 -7.40439,-0.61401 -13.18862,3.47559 -15.368,10.86552 -1.1117,3.7696 -1.99849,4.06509 -6.29927,2.099 z m 35.1253,-33.11544 v -7.68881 h -8.96068 -8.96069 l -7.76247,7.67918 -7.76246,7.67919 16.72314,0.01 16.72316,0.01 z m 33.44631,0 -7.65996,-7.68881 h -10.20209 -10.2021 v 7.68881 7.68881 h 17.86205 17.86205 z"
       id="path5619" />
    <path
       style="fill:#64a900;fill-opacity:1;stroke-width:0.865445"
       d="m 646.71951,392.97863 -2.71689,-2.48402 v -42.84692 -42.84695 l 2.11123,-2.40229 2.11124,-2.4023 h 24.4994 24.49941 l 2.25746,2.0757 2.25745,2.0757 v 43.17353 43.17353 l -2.71688,2.48402 -2.7169,2.48402 h -23.43432 -23.43432 z m 29.47541,-1.96822 c 0.57735,-0.56511 1.04974,-1.83654 1.04974,-2.82547 0,-2.42308 -1.62317,-3.85288 -4.37395,-3.85288 -2.79573,0 -4.37395,1.43664 -4.37395,3.9816 0,3.15745 5.32243,5.02202 7.69816,2.69675 z m 20.0866,-43.70912 -0.22885,-33.60591 h -23.18196 -23.18196 l -0.22884,33.60591 -0.22884,33.60594 h 23.63965 23.63966 z m -18.59946,-40.88363 c -0.29737,-0.47091 -2.4857,-0.8562 -4.86298,-0.8562 -2.37727,0 -4.32232,0.38529 -4.32232,0.8562 0,0.47091 2.18834,0.8562 4.86297,0.8562 3.01923,0 4.658,-0.32461 4.32233,-0.8562 z"
       id="path7088" />
    <path
       style="fill:none;stroke:#ffffff;stroke-width:2.16246;stroke-linecap:butt;stroke-linejoin:miter;stroke-miterlimit:4;stroke-dasharray:none;stroke-opacity:1"
       d="m 266.42613,292.47886 c 0,0 22.38272,-18.85398 97.81543,3.44267 53.08159,15.69006 55.05493,11.55829 82.95636,-1.13614"
       id="path13792"
       sodipodi:nodetypes="csc" />
    <path
       style="fill:none;stroke:#ffffff;stroke-width:2.36581;stroke-linecap:butt;stroke-linejoin:miter;stroke-miterlimit:4;stroke-dasharray:none;stroke-opacity:1"
       d="m 293.69588,257.13749 c 0,0 24.06741,1.01913 62.22873,-30.0746 33.2307,-27.07625 78.88084,-20.3857 78.88084,-20.3857"
       id="path13798"
       sodipodi:nodetypes="csc" />
    <path
       style="fill:#64a900;fill-opacity:1;stroke-width:4.07126"
       d="m 41.940804,554.78855 c 1.431082,-1.43103 -1.928374,-7.98313 -7.463993,-14.5618 -16.164703,-19.21085 -13.339049,-30.26793 23.441654,-91.73189 29.015895,-48.4881 33.816678,-59.19938 35.823795,-79.92822 1.724498,-17.80846 0.821593,-25.43188 -3.524325,-29.77819 -8.553249,-8.5534 -0.560277,-14.2585 17.821775,-12.72089 17.2732,1.44425 23.83748,10.10673 9.22826,12.17759 -8.54263,1.21147 -9.59057,3.91677 -11.55131,29.83045 -1.94768,25.74166 -4.40951,32.19259 -25.445366,66.67823 -12.808812,20.99855 -23.28891,38.5902 -23.28891,39.0923 0,0.50141 15.114479,0.92969 33.587812,0.94854 25.411504,0.0267 41.395204,2.65186 65.659944,10.78076 32.19382,10.78514 75.8163,14.62033 75.8163,6.66554 0,-2.24343 -13.74053,-27.15253 -30.53445,-55.35364 -28.76035,-48.29571 -30.53445,-52.67129 -30.53445,-75.31076 0,-18.65131 -1.36862,-24.03598 -6.10691,-24.03598 -3.35871,0 -6.10676,-2.74814 -6.10676,-6.107 0,-4.39521 4.49678,-6.10695 16.04468,-6.10695 17.50925,0 25.66798,7.01651 15.06126,12.95236 -4.77408,2.67159 -6.67841,9.42888 -6.67841,23.69641 0,17.72024 3.85256,26.48915 34.34274,78.16949 18.88846,32.01575 36.29306,60.4233 38.67689,63.12773 2.3838,2.70452 4.33434,6.72173 4.33434,8.9275 0,6.40824 -16.72443,32.97464 -20.75856,32.97464 -2.01791,0 -3.66914,2.748 -3.66914,6.10693 0,5.25981 -13.64628,6.1069 -98.38871,6.1069 -54.113733,0 -97.218491,-1.17034 -95.788156,-2.60077 z M 162.83508,520.74787 c 0,-2.23917 -1.83238,-4.07126 -4.07121,-4.07126 -2.23919,0 -4.0714,1.83241 -4.0714,4.07126 0,2.23917 1.83241,4.07124 4.0714,4.07124 2.23923,0 4.07121,-1.83239 4.07121,-4.07124 z m -54.74275,-28.85351 c 4.1954,-6.78857 -5.2405,-14.57323 -10.856969,-8.95677 -4.697783,4.69782 -1.756668,13.38274 4.530859,13.38274 1.97491,0 4.82159,-1.99179 6.32611,-4.42597 z m 79.17031,-15.93031 c 0,-2.2392 1.72448,-4.0712 3.83097,-4.0712 2.10709,0 4.96321,1.8324 6.34717,4.0712 1.38376,2.23922 -0.34071,4.07125 -3.831,4.07125 -3.49086,0 -6.34714,-1.83241 -6.34714,-4.07125 z m -53.62723,-17.10156 c -5.87922,-4.56885 -6.25629,-8.62229 -2.76451,-29.71794 2.22368,-13.43519 3.45524,-50.38515 2.73649,-82.11101 -1.21151,-53.43877 -2.02643,-58.65614 -11.0868,-70.9025 -7.33261,-9.91103 -8.09682,-12.5734 -3.05357,-10.63805 5.79175,2.22231 6.72671,-0.79746 6.72671,-21.71863 0,-13.48562 1.81157,-24.29976 4.07121,-24.29976 2.2392,0 4.07124,9.93664 4.07124,22.08131 0,12.14479 2.15193,31.40358 4.78182,42.79723 4.20887,18.23332 5.79422,20.4011 13.23153,18.0902 8.12295,-2.52411 8.17426,-2.3166 1.32509,5.36073 -6.08195,6.81757 -7.19521,17.17516 -7.60635,70.77033 -0.26503,34.53109 -1.63932,67.91279 -3.05337,74.18121 -2.24376,9.9436 -3.4403,10.72261 -9.37949,6.10688 z m 38.36,-152.51637 c -9.69903,-3.91375 -5.00388,-12.87662 12.78191,-24.401 34.20418,-22.16299 34.31244,-22.25427 22.8416,-19.29176 -5.59791,1.44623 -18.18374,7.98059 -27.96835,14.52174 -9.78458,6.54142 -18.62212,11.06146 -19.63865,10.04498 -4.33511,-4.33526 12.14971,-27.43593 23.92286,-33.52431 12.1578,-6.28692 62.11457,-9.36153 67.33217,-4.14391 4.2049,4.20468 -24.12029,43.05333 -37.35408,51.23249 -12.59587,7.78466 -30.51591,10.16223 -41.91746,5.56177 z M 60.741278,284.43074 C 42.456253,279.54043 -0.04615755,251.41705 3.7626398e-5,244.23872 0.03785878,237.7624 40.785328,225.58151 62.405378,225.58151 c 21.78739,0 24.746311,1.12312 35.913334,13.62034 14.169888,15.85868 13.017618,19.92304 -3.298888,11.63619 -15.242414,-7.74134 -52.127796,-13.2658 -48.410195,-7.25055 1.491677,2.41222 5.94036,4.38609 9.887766,4.38609 10.615635,0 44.850655,12.31456 47.885295,17.22474 3.07779,4.98003 -13.016105,18.12053 -24.998841,20.4111 -4.565666,0.87305 -12.954954,0.34221 -18.642571,-1.17973 z m 79.626842,-81.65021 c 3.82193,-12.89338 20.46534,-47.85423 28.87735,-60.6597 3.67747,-5.59808 -0.58867,-2.43963 -9.48153,7.01863 -9.61064,10.22237 -18.25982,24.66982 -21.32664,35.62344 -5.68744,20.31334 -10.00798,23.22531 -13.74867,9.26629 -4.54467,-16.95762 -2.58601,-33.5054 5.54396,-46.83952 9.10557,-14.93412 48.20423,-41.71019 60.90569,-41.71019 7.5952,0 8.33821,2.49508 8.33821,28.00161 0,45.01008 -16.24061,71.64173 -46.70331,76.58528 -14.65352,2.37795 -15.17826,2.06977 -12.40506,-7.28584 z"
       id="path6025" />
    <path
       style="fill:#ffffff;stroke-width:0.0179199"
       d="m 442.89413,293.8454 c -0.0126,-0.0449 -0.0227,-0.11752 -0.0226,-0.16149 7.1e-4,-0.0439 0.0798,-0.36903 0.17688,-0.72238 0.20777,-0.75637 0.22037,-0.7829 0.43348,-0.91319 0.24251,-0.14827 0.0788,-0.17168 2.86315,0.40936 1.34995,0.28169 2.50591,0.52753 2.5688,0.54627 0.0657,0.0196 0.14531,0.0602 0.18723,0.0957 0.0994,0.084 0.18274,0.24174 0.195,0.3691 0.009,0.0949 -0.049,0.31249 -1.32887,4.9659 -0.0668,0.24281 -0.13151,0.33637 -0.30982,0.44783 -0.20096,0.12562 -0.26259,0.12336 -1.03506,-0.0379 -0.56242,-0.11742 -0.66822,-0.14551 -0.74961,-0.19869 -0.1272,-0.0831 -0.22023,-0.22942 -0.24036,-0.37794 -0.0165,-0.1211 -0.002,-0.17903 0.51969,-2.06555 0.19792,-0.71591 0.35579,-1.30567 0.35085,-1.31057 -0.005,-0.005 -0.74508,-0.16201 -1.64472,-0.34921 -1.40602,-0.29254 -1.64887,-0.3485 -1.72947,-0.39853 -0.11194,-0.0694 -0.20268,-0.18499 -0.23463,-0.29867 z"
       id="path21210" />
    <g
       id="g998"
       transform="matrix(1.1829453,-0.40757982,0.40757982,1.1829453,-153.42303,190.28335)">
      <g
         id="g1177"
         transform="translate(-3.4181585,-3.4181585)">
        <path
           style="fill:none;stroke:#ffffff;stroke-width:2.67635;stroke-linecap:butt;stroke-linejoin:miter;stroke-miterlimit:4;stroke-dasharray:none;stroke-opacity:1"
           d="m 242.40825,353.9536 c 0,0 41.1344,0.94485 61.06195,31.0875 25.92464,39.2139 69.16118,49.59173 69.16118,49.59173"
           id="path13790"
           sodipodi:nodetypes="csc" />
        <path
           style="fill:#ffffff;stroke-width:0.0221784"
           d="m 370.75495,430.32878 c 0.0422,-0.0394 0.11565,-0.0926 0.16398,-0.1176 0.0482,-0.0251 0.45027,-0.12497 0.89329,-0.222 0.94833,-0.20772 0.98465,-0.20919 1.25005,-0.0507 0.30201,0.1804 0.23346,-0.0124 1.19948,3.37264 0.46837,1.64123 0.86439,3.04925 0.88004,3.12894 0.0164,0.0833 0.0176,0.1939 0.003,0.26022 -0.0347,0.15721 -0.15968,0.33937 -0.29214,0.42611 -0.0987,0.0646 -0.37065,0.12607 -6.2058,1.40234 -0.30446,0.0666 -0.44424,0.0495 -0.66901,-0.0817 -0.25327,-0.14788 -0.28629,-0.21671 -0.55419,-1.15592 -0.19505,-0.68378 -0.22523,-0.81585 -0.21378,-0.93564 0.0179,-0.18723 0.12461,-0.37335 0.27575,-0.4809 0.12324,-0.0877 0.19509,-0.10508 2.56226,-0.61951 0.89831,-0.19523 1.63534,-0.3617 1.63786,-0.36994 0.002,-0.009 -0.25132,-0.90961 -0.56405,-2.00305 -0.48877,-1.70888 -0.56724,-2.00719 -0.55881,-2.12428 0.0117,-0.16264 0.086,-0.32855 0.19217,-0.42899 z"
           id="path20890" />
      </g>
    </g>
    <g
       id="g990"
       transform="matrix(-0.97367321,0.77860755,0.77860755,0.97367321,119.01802,-9.9455602)">
      <path
         style="fill:none;stroke:#ffffff;stroke-width:2.67635;stroke-linecap:butt;stroke-linejoin:miter;stroke-miterlimit:4;stroke-dasharray:none;stroke-opacity:1"
         d="m 152.76319,344.1904 c 0,0 -37.6048,38.06135 -77.951829,37.67691 -36.976818,-0.35233 -59.462575,52.63661 -59.462575,52.63661"
         id="path13786"
         sodipodi:nodetypes="csc" />
      <path
         style="fill:#ffffff;stroke-width:0.0221784"
         d="m 19.8688,433.74605 c 0.03535,0.0456 0.08081,0.12415 0.101036,0.17466 0.02025,0.0505 0.08035,0.46034 0.133603,0.91071 0.113991,0.9641 0.111904,1.00039 -0.07179,1.24902 -0.209043,0.28295 -0.01046,0.23357 -3.473768,0.86397 -1.679156,0.30565 -3.119158,0.5621 -3.200002,0.56988 -0.08453,0.008 -0.19469,-0.001 -0.259261,-0.0225 -0.153024,-0.05 -0.322126,-0.1921 -0.395484,-0.33242 -0.05463,-0.10455 -0.08922,-0.38121 -0.788845,-6.31318 -0.03651,-0.30951 -0.0058,-0.44695 0.146715,-0.65782 0.171933,-0.23761 0.243661,-0.26372 1.204566,-0.43851 0.699585,-0.12726 0.833967,-0.14437 0.952075,-0.12127 0.184574,0.0361 0.359375,0.16052 0.451623,0.32144 0.07522,0.13123 0.08551,0.20443 0.366014,2.61056 0.106458,0.9131 0.20007,1.66289 0.208022,1.66618 0.0078,0.003 0.929826,-0.16117 2.0486,-0.36549 1.748484,-0.31934 2.053039,-0.36827 2.168749,-0.34843 0.160729,0.0276 0.318556,0.11773 0.408142,0.2332 z"
         id="path21020" />
    </g>
    <g
       id="g986"
       transform="matrix(-1.2362023,-0.38458005,-0.38458005,1.2362023,554.84086,21.782095)">
      <path
         style="fill:none;stroke:#ffffff;stroke-width:2.67635;stroke-linecap:butt;stroke-linejoin:miter;stroke-miterlimit:4;stroke-dasharray:none;stroke-opacity:1"
         d="m 173.00818,304.30741 c 0,0 -11.7955,-24.32254 -88.864996,-3.94204 C 53.656922,308.42724 5.3305741,288.77366 5.3305741,288.77366"
         id="path13656"
         sodipodi:nodetypes="csc" />
      <path
         style="fill:#ffffff;stroke-width:0.0221784"
         d="m 7.7759941,293.05009 c -0.033,0.0473 -0.0946,0.11402 -0.1368,0.14833 -0.0422,0.0343 -0.41573,0.21337 -0.83001,0.39791 -0.8868,0.39503 -0.92207,0.40382 -1.21403,0.30221 -0.33225,-0.11563 -0.22614,0.0593 -1.85617,-3.06074 -0.79032,-1.51275 -1.46265,-2.81172 -1.49408,-2.88661 -0.0329,-0.0783 -0.0564,-0.18634 -0.0555,-0.25425 0.002,-0.16097 0.0878,-0.36464 0.20004,-0.47634 0.0836,-0.0832 0.33754,-0.19835 5.79447,-2.62728 0.28473,-0.12674 0.42508,-0.13826 0.67172,-0.0552 0.27794,0.0936 0.32417,0.15439 0.776312,1.0201 0.32918,0.63028 0.3854199,0.75353 0.3984099,0.87317 0.0203,0.18697 -0.0466,0.39082 -0.1728999,0.52668 -0.10297,0.11078 -0.16985,0.14232 -2.384242,1.12443 -0.84034,0.3727 -1.52854,0.68466 -1.52933,0.69323 -8e-4,0.009 0.42991,0.84008 0.95712,1.84777 0.82396,1.57489 0.96109,1.85119 0.9765,1.96758 0.0214,0.16164 -0.0179,0.33914 -0.10154,0.45897 z"
         id="path21058" />
    </g>
    <path
       style="fill:#ffffff;stroke-width:0.019605"
       d="m 431.54511,209.41949 c 0.0133,0.0491 0.0446,0.12315 0.0695,0.16429 0.025,0.0412 0.28206,0.30176 0.57153,0.57911 0.61966,0.59368 0.64638,0.61154 0.91963,0.61427 0.31097,0.003 0.17039,0.11695 2.459,-1.99143 1.10963,-1.02224 2.05721,-1.9019 2.10574,-1.9548 0.0507,-0.0554 0.10263,-0.13814 0.12216,-0.19491 0.0463,-0.1346 0.0362,-0.32958 -0.024,-0.45607 -0.0447,-0.0942 -0.2215,-0.2659 -4.03513,-3.9176 -0.199,-0.19053 -0.31227,-0.24213 -0.54231,-0.24669 -0.25922,-0.005 -0.31582,0.0315 -0.95072,0.61659 -0.46224,0.42594 -0.54586,0.51166 -0.59243,0.6073 -0.0727,0.14953 -0.078,0.33907 -0.0136,0.48982 0.0526,0.12293 0.0988,0.16917 1.64736,1.64807 0.5877,0.56123 1.06696,1.02646 1.06506,1.03381 -0.003,0.007 -0.60874,0.57037 -1.34853,1.25108 -1.15618,1.06387 -1.35284,1.25274 -1.40045,1.34496 -0.0661,0.12807 -0.0866,0.28746 -0.0526,0.41219 z"
       id="path21096" />
  </g>
</svg>
